Coordinates
version=1
nRows=29
nColumns=18
inDegrees=yes

Units are S.I. units (second, meters, Newtons, ...)
If the header above contains a line with 'inDegrees', this indicates whether rotational values are in degrees (yes) or radians (no).

endheader
time	ground_thorax_rot_x	ground_thorax_rot_y	ground_thorax_rot_z	ground_thorax_tx	ground_thorax_ty	ground_thorax_tz	clav_prot	clav_elev	scapula_abduction	scapula_elevation	scapula_upward_rot	scapula_winging	plane_elv	shoulder_elv	axial_rot	elbow_flexion	pro_sup
      3.60000000	      2.87279089	    -10.98687526	     -8.42874830	     -0.00680038	      0.00405534	      0.00480430	    -22.55330604	     -1.76237667	    -14.83761411	     -1.27114078	     10.03690516	      5.49906303	     -9.76666627	     16.54064427	     34.68472909	      0.00000000	     34.32000000
      3.61000000	      2.91105206	    -10.97732834	     -8.42173862	     -0.00683955	      0.00403825	      0.00481771	    -22.53562144	     -1.78540771	    -14.82238523	     -1.27632478	      9.99599919	      5.51468551	     -9.76954409	     16.51482934	     34.69050591	      0.00000000	     34.32000000
      3.62000000	      2.68756772	    -11.12491789	     -8.37523653	     -0.00685967	      0.00412934	      0.00469615	    -22.27318313	     -1.93506855	    -14.51005433	     -1.27839332	      9.64982498	      5.63277860	     -9.75527797	     16.60215137	     34.98520571	      0.00000000	     34.32000000
      3.63000000	      2.69782404	    -11.09402525	     -8.35878428	     -0.00687265	      0.00425777	      0.00463809	    -22.25913359	     -1.94990470	    -14.48344799	     -1.28781099	      9.64561199	      5.63657185	     -9.74675672	     16.57330168	     34.98985534	      0.00000000	     34.32000000
      3.64000000	      2.72077731	    -11.07094591	     -8.34888922	     -0.00685409	      0.00425338	      0.00458900	    -22.24468368	     -1.96782980	    -14.46219174	     -1.29598614	      9.62863813	      5.64450311	     -9.74185471	     16.53609492	     34.99404986	      0.00000000	     34.32000000
      3.65000000	      2.74654716	    -11.05532787	     -8.34703821	     -0.00682866	      0.00411858	      0.00453008	    -22.23331439	     -1.99082311	    -14.44459005	     -1.30837135	      9.61205787	      5.65353017	     -9.74074384	     16.50903961	     35.00256016	      0.00000000	     34.32000000
      3.66000000	      2.78224642	    -11.04285002	     -8.34037811	     -0.00681142	      0.00396243	      0.00451824	    -22.22697152	     -2.02272807	    -14.43069887	     -1.32918777	      9.59990176	      5.66347783	     -9.73999068	     16.49774429	     35.01112004	      0.00000000	     34.32000000
      3.67000000	      2.63710948	    -11.09311982	     -8.55011921	     -0.00661304	      0.00402184	      0.00444848	    -22.19707249	     -2.51010335	    -14.34191003	     -1.64899790	      9.40570422	      5.82371356	     -9.89749025	     16.68114332	     35.42734005	      0.00000000	     34.32000000
      3.68000000	      2.67232518	    -11.07910588	     -8.53556606	     -0.00660853	      0.00395487	      0.00448891	    -22.18884954	     -2.52817380	    -14.33118182	     -1.65791276	      9.38955682	      5.83192650	     -9.89981662	     16.66217483	     35.43298944	      0.00000000	     34.32000000
      3.69000000	      2.69783013	    -11.05812527	     -8.53106873	     -0.00662835	      0.00394517	      0.00452515	    -22.17811135	     -2.54009481	    -14.31592164	     -1.66291215	      9.37690954	      5.83762665	     -9.90484421	     16.65300048	     35.44209413	      0.00000000	     34.32000000
      3.70000000	      2.73186677	    -11.03643438	     -8.53003298	     -0.00671127	      0.00391037	      0.00464152	    -22.16453825	     -2.55313068	    -14.29667962	     -1.66794019	      9.36191207	      5.84408965	     -9.91181727	     16.64911786	     35.45125010	      0.00000000	     34.32000000
      3.71000000	      2.86048482	    -10.99766963	     -8.56389153	     -0.00678252	      0.00388532	      0.00468014	    -22.11098317	     -2.59765941	    -14.20074733	     -1.69417678	      9.34398025	      5.85744325	    -10.00374721	     16.82616782	     35.53731425	      0.00000000	     34.32000000
      3.72000000	      2.91007810	    -11.00385285	     -8.56289858	     -0.00678471	      0.00372030	      0.00484362	    -22.10146563	     -2.61613046	    -14.19659029	     -1.69841181	      9.31072002	      5.86967599	    -10.01960794	     16.81148873	     35.54295205	      0.00000000	     34.32000000
      3.73000000	      2.72886099	    -11.08552318	     -8.43935685	     -0.00668831	      0.00402133	      0.00462904	    -21.84089207	     -3.00716591	    -13.68313756	     -1.95894300	      9.21752850	      5.97470348	    -12.12268262	     16.77952209	     37.97764427	      0.00000000	     34.32000000
      3.74000000	      2.77936616	    -11.07895747	     -8.44859968	     -0.00663498	      0.00390283	      0.00473153	    -21.83337328	     -3.02038315	    -13.68237838	     -1.96035480	      9.18786513	      5.98538636	    -12.12753274	     16.75947308	     37.98108911	      0.00000000	     34.32000000
      3.75000000	      2.82400319	    -11.03834784	     -8.44542532	     -0.00666794	      0.00386080	      0.00479318	    -21.82006762	     -3.04383447	    -13.66091948	     -1.97339956	      9.17260739	      5.99441910	    -12.12723426	     16.74901873	     37.98844048	      0.00000000	     34.32000000
      3.76000000	      2.88840955	    -10.90739087	     -8.51089796	     -0.00672847	      0.00381119	      0.00474962	    -21.77476822	     -3.07071959	    -13.58130729	     -1.98799392	      9.16014377	      6.00170271	    -12.16585672	     16.81902887	     38.03626542	      0.00000000	     34.32000000
      3.77000000	      2.92764711	    -10.83248171	     -8.52336910	     -0.00678749	      0.00378800	      0.00482258	    -21.73888973	     -3.09753474	    -13.51468225	     -2.00491577	      9.15409398	      6.00783318	    -12.22782501	     16.86805441	     38.07483276	      0.00000000	     34.32000000
      3.78000000	      2.92792501	    -10.83065565	     -8.52234069	     -0.00669190	      0.00366893	      0.00497454	    -21.73852608	     -3.09820818	    -13.51369242	     -2.00550479	      9.15441117	      6.00789275	    -12.22793818	     16.86835520	     38.07498167	      0.00000000	     34.32000000
      3.79000000	      2.97339295	    -10.70802104	     -8.54843806	     -0.00672947	      0.00367576	      0.00488375	    -21.69928206	     -3.12105231	    -13.43999140	     -2.02035745	      9.15263488	      6.01164713	    -12.27195766	     16.90703093	     38.09295225	      0.00000000	     34.32000000
      3.80000000	      2.76632297	    -10.61085193	     -8.43088687	     -0.00670232	      0.00398023	      0.00447443	    -21.49400794	     -3.44441971	    -13.13725487	     -2.18354505	      8.88677730	      6.14961815	    -13.48810326	     17.15566491	     38.46270045	      0.00000000	     34.32000000
      3.81000000	      2.80891437	    -10.57431916	     -8.43505122	     -0.00666093	      0.00390434	      0.00445963	    -21.47869920	     -3.46806411	    -13.11126752	     -2.19718125	      8.87346446	      6.15805376	    -13.48352180	     17.13709076	     38.47292497	      0.00000000	     34.32000000
      3.82000000	      2.92051250	    -10.52311472	     -8.51791997	     -0.00657433	      0.00383529	      0.00446226	    -21.42773367	     -3.60144162	    -13.04528375	     -2.26669226	      8.76432446	      6.21740253	    -13.44587245	     17.31962037	     38.61779292	      0.00000000	     34.32000000
      3.83000000	      2.89402374	    -10.48841151	     -8.56129785	     -0.00653510	      0.00374941	      0.00451784	    -21.32634611	     -3.84014265	    -13.00306831	     -2.34072337	      8.39310114	      6.36899809	    -13.36821527	     17.62146361	     39.00165318	      0.00000000	     34.32000000
      3.84000000	      2.93511943	    -10.46975026	     -8.56374285	     -0.00650348	      0.00363342	      0.00465817	    -21.31963527	     -3.85524985	    -12.99275944	     -2.34919187	      8.38302328	      6.37509085	    -13.36927248	     17.62379341	     39.00662487	      0.00000000	     34.32000000
      3.85000000	      2.96906720	    -10.40352267	     -8.56311298	     -0.00645985	      0.00361762	      0.00462267	    -21.30677490	     -3.87734968	    -12.96150529	     -2.36723480	      8.38884315	      6.37845799	    -13.36306258	     17.64240225	     39.01624894	      0.00000000	     34.32000000
      3.86000000	      3.03385761	    -10.25924698	     -8.60277358	     -0.00635270	      0.00359229	      0.00443764	    -21.28965957	     -3.93531697	    -12.93018469	     -2.40392918	      8.36316840	      6.39920575	    -13.35904711	     17.71101846	     39.05593840	      0.00000000	     34.32000000
      3.87000000	      3.09517349	    -10.20904553	     -8.59201574	     -0.00614861	      0.00352434	      0.00443855	    -21.27247382	     -3.97363015	    -12.91066410	     -2.42173606	      8.32466715	      6.41807152	    -13.35174336	     17.67696026	     39.05998775	      0.00000000	     34.32000000
      3.88000000	      3.09563964	    -10.00901146	     -8.66768685	     -0.00607725	      0.00347203	      0.00412024	    -21.22953249	     -4.02051064	    -12.86802520	     -2.43182944	      8.24076882	      6.44878127	    -13.31616605	     17.69478011	     39.10344304	      0.00000000	     34.32000000
